# xmcd
#
# Track frame offsets:
#	150
#	21417
#	40437
#	57675
#	82386
#	107172
#	126835
#	149846
#	167273
#	189972
#
# Disc length: 3128 seconds
# Revision: 0
# Processed by: cddbd v1.5.2PL0 Copyright (c) Steve Scherf et al.
# Submitted via: dBpowerAMP V12.0
#
DISCID=970c360a
DTITLE=Malefice - Awaken the Tides
DYEAR=2011
DGENRE=Metal
TTITLE0=Awaken the Tides
TTITLE1=Delirium
TTITLE2=Dead in the Water
TTITLE3=Minutes
TTITLE4=Baying for Blood
TTITLE5=Blessed/Cursed
TTITLE6=The Day the Sky Fell
TTITLE7=Out Numbered Out Gunned
TTITLE8=Flood of Red
TTITLE9=The Haunting
EXTD=
EXTT0=
EXTT1=
EXTT2=
EXTT3=
EXTT4=
EXTT5=
EXTT6=
EXTT7=
EXTT8=
EXTT9=
PLAYORDER=
